Input #0, mov,mp4,m4a,3gp,3g2,mj2, from '/home/hbattu/projects/huberman-gpt/huberman-audio/mp3/tmpd9zqrru8.mp4':
  Metadata:
    major_brand     : dash
    minor_version   : 0
    compatible_brands: iso6mp41
    creation_time   : 2021-04-07T06:39:13.000000Z
  Duration: 01:38:22.86, start: 0.000000, bitrate: 129 kb/s
    Stream #0:0(und): Audio: aac (LC) (mp4a / 0x6134706D), 44100 Hz, stereo, fltp, 0 kb/s (default)
    Metadata:
      creation_time   : 2021-04-07T06:39:13.000000Z
      handler_name    : ISO Media file produced by Google Inc.
Stream mapping:
  Stream #0:0 -> #0:0 (aac (native) -> mp3 (libmp3lame))
Press [q] to stop, [?] for help
[graph_0_in_0_0 @ 0x5589329c3240] tb:1/44100 samplefmt:fltp samplerate:44100 chlayout:0x3
Output #0, mp3, to '../huberman-audio/mp3/J7SrAEacyf8.mp3':
  Metadata:
    major_brand     : dash
    minor_version   : 0
    compatible_brands: iso6mp41
    TSSE            : Lavf58.29.100
    Stream #0:0(und): Audio: mp3 (libmp3lame), 44100 Hz, stereo, fltp, delay 1105 (default)
    Metadata:
      creation_time   : 2021-04-07T06:39:13.000000Z
      handler_name    : ISO Media file produced by Google Inc.
      encoder         : Lavc58.54.100 libmp3lame
No more output streams to write to, finishing.
size=   92233kB time=01:38:22.86 bitrate= 128.0kbits/s speed=88.9x    
[AVIOContext @ 0x5589328b6900] Statistics: 0 seeks, 133 writeouts
video:0kB audio:92233kB subtitle:0kB other streams:0kB global headers:0kB muxing overhead: 0.000366%
Input file #0 (/home/hbattu/projects/huberman-gpt/huberman-audio/mp3/tmpd9zqrru8.mp4):
  Input stream #0:0 (audio): 254215 packets read (94445772 bytes); 254215 frames decoded (260316160 samples); 
  Total: 254215 packets (94445772 bytes) demuxed
Output file #0 (../huberman-audio/mp3/J7SrAEacyf8.mp3):
  Output stream #0:0 (audio): 225969 frames encoded (260316160 samples); 225970 packets muxed (94446236 bytes); 
  Total: 225970 packets (94446236 bytes) muxed
[AVIOContext @ 0x5589328db800] Statistics: 2 seeks, 362 writeouts
[AVIOContext @ 0x5589328bf880] Statistics: 95531968 bytes read, 0 seeks
